<?xml version="1.0" standalone="no"?>
<!DOCTYPE svg PUBLIC "-//W3C//DTD SVG 20010904//EN"
 "http://www.w3.org/TR/2001/REC-SVG-20010904/DTD/svg10.dtd">
<svg version="1.0" xmlns="http://www.w3.org/2000/svg"
 width="512.000000pt" height="512.000000pt" viewBox="0 0 512.000000 512.000000"
 preserveAspectRatio="xMidYMid meet">
<metadata>
Created by potrace 1.14, written by Peter Selinger 2001-2017
</metadata>
<g transform="translate(0.000000,512.000000) scale(0.100000,-0.100000)"
fill="#000000" stroke="none">
<path d="M2855 5104 c-114 -28 -249 -127 -343 -254 -69 -94 -159 -293 -176
-392 -3 -18 -11 -51 -16 -73 -6 -22 -13 -108 -17 -192 l-6 -151 -52 29 c-242
137 -565 161 -905 68 -64 -17 -110 -33 -225 -78 -11 -5 -69 -32 -130 -62 -125
-61 -134 -75 -85 -126 43 -46 119 -79 242 -107 25 -6 18 -11 -75 -59 -517
-267 -896 -779 -1007 -1362 -28 -149 -37 -261 -34 -425 3 -168 5 -196 34 -360
29 -160 104 -377 185 -533 296 -571 825 -944 1440 -1016 114 -14 1769 -8 1820
6 22 6 56 13 75 16 115 16 347 98 490 173 454 240 793 659 943 1164 60 202 82
364 82 590 -1 160 -8 241 -34 375 -121 622 -505 1129 -1053 1393 l-117 56 35
47 c64 88 134 261 134 333 0 23 -30 52 -42 41 -11 -11 -166 -45 -231 -51 -40
-3 -214 -7 -387 -8 -294 -2 -320 -4 -390 -25 -87 -26 -128 -47 -228 -118 -41
-29 -80 -53 -87 -53 -22 0 -10 157 20 245 61 183 163 301 348 403 120 67 174
113 203 176 56 121 4 242 -133 311 -66 32 -187 41 -278 19z"/>
</g>
</svg>
